# xmcd
#
# Track frame offsets:
#	150
#	19037
#	36248
#	68361
#	82349
#	111405
#	120430
#	145814
#	166020
#	204737
#	221833
#	232927
#	246347
#
# Disc length: 3393 seconds
#
# Revision: 1
# Processed by: cddbd v1.5.2PL0 Copyright (c) Steve Scherf et al.
# Submitted via: audiograbber 1.83.01
#
DISCID=b40d3f0d
DTITLE=PORQUE Tango - Presents ASTOR PIAZOLLA
DYEAR=2010
DGENRE=Tango
TTITLE0=Libertango
TTITLE1=Yo Soy Maria
TTITLE2=Milonga del Ángel
TTITLE3=La Muerte del Ángel
TTITLE4=Resurrección del Ángel
TTITLE5=Tristesa, Separación
TTITLE6=Buenos Aires Hora Cero (Zero Hour)
TTITLE7=Oblivion (J'oublie)
TTITLE8=Adiós Nonino
TTITLE9=Tango Apasionado
TTITLE10=Leijia's Game
TTITLE11=Che Tango Che
TTITLE12=Bailongo
EXTD=
EXTT0=
EXTT1=
EXTT2=
EXTT3=
EXTT4=
EXTT5=
EXTT6=
EXTT7=
EXTT8=
EXTT9=
EXTT10=
EXTT11=
EXTT12=
PLAYORDER=
